<svg xmlns="http://www.w3.org/2000/svg" xmlns:xlink="http://www.w3.org/1999/xlink" width="48" zoomAndPan="magnify" viewBox="0 0 36 36.000001" height="48" preserveAspectRatio="xMidYMid meet" version="1.0"><defs><g/><clipPath id="195c6a0a24"><path d="M 17 9 L 35 9 L 35 25 L 17 25 Z M 17 9 " clip-rule="nonzero"/></clipPath><clipPath id="8d5a870463"><path d="M 36.882812 13.566406 L 28.007812 28.664062 L 14.796875 20.894531 L 23.671875 5.800781 Z M 36.882812 13.566406 " clip-rule="nonzero"/></clipPath><clipPath id="c0b6663549"><path d="M 36.882812 13.566406 L 28.011719 28.652344 L 15.046875 21.03125 L 23.917969 5.945312 Z M 36.882812 13.566406 " clip-rule="nonzero"/></clipPath><clipPath id="a39d911d4d"><path d="M 21.53125 24.839844 L 17.265625 17.257812 L 21.699219 9.714844 L 30.402344 9.753906 L 34.664062 17.339844 L 30.230469 24.882812 Z M 21.53125 24.839844 " clip-rule="nonzero"/></clipPath><clipPath id="a5f5314670"><path d="M 1 0 L 21 0 L 21 18 L 1 18 Z M 1 0 " clip-rule="nonzero"/></clipPath><clipPath id="7a65ddb203"><path d="M 23.246094 4.578125 L 13.453125 21.234375 L -0.855469 12.820312 L 8.9375 -3.835938 Z M 23.246094 4.578125 " clip-rule="nonzero"/></clipPath><clipPath id="79ad048e03"><path d="M 6.300781 17.019531 L 1.59375 8.652344 L 6.488281 0.324219 L 16.089844 0.371094 L 20.796875 8.738281 L 15.902344 17.0625 Z M 6.300781 17.019531 " clip-rule="nonzero"/></clipPath><clipPath id="55bb3163a5"><path d="M 1 17 L 21 17 L 21 35 L 1 35 Z M 1 17 " clip-rule="nonzero"/></clipPath><clipPath id="abf0ecea61"><path d="M 23.195312 22.210938 L 13.402344 38.867188 L -0.90625 30.453125 L 8.886719 13.796875 Z M 23.195312 22.210938 " clip-rule="nonzero"/></clipPath><clipPath id="19b740f74e"><path d="M 6.25 34.652344 L 1.542969 26.285156 L 6.4375 17.960938 L 16.039062 18.003906 L 20.746094 26.371094 L 15.851562 34.699219 Z M 6.25 34.652344 " clip-rule="nonzero"/></clipPath></defs><g clip-path="url(#195c6a0a24)"><g clip-path="url(#8d5a870463)"><g clip-path="url(#c0b6663549)"><g clip-path="url(#a39d911d4d)"><path stroke-linecap="butt" transform="matrix(-0.36988, 0.629042, -0.629042, -0.36988, 36.882803, 13.567309)" fill="none" stroke-linejoin="miter" d="M 23.979347 10.304676 L 17.985697 20.61011 L 5.995689 20.612125 L -0.00338213 10.304092 L 5.997596 0.000559023 L 17.987604 -0.00145577 Z M 23.979347 10.304676 " stroke="#ffffff" stroke-width="4" stroke-opacity="1" stroke-miterlimit="4"/></g></g></g></g><g clip-path="url(#a5f5314670)"><g clip-path="url(#7a65ddb203)"><g clip-path="url(#79ad048e03)"><path fill="#eb088a" d="M 23.246094 4.578125 L 13.453125 21.234375 L -0.855469 12.820312 L 8.9375 -3.835938 Z M 23.246094 4.578125 " fill-opacity="1" fill-rule="nonzero"/></g></g></g><g clip-path="url(#55bb3163a5)"><g clip-path="url(#abf0ecea61)"><g clip-path="url(#19b740f74e)"><path fill="#eb088a" d="M 23.195312 22.210938 L 13.402344 38.867188 L -0.90625 30.453125 L 8.886719 13.796875 Z M 23.195312 22.210938 " fill-opacity="1" fill-rule="nonzero"/></g></g></g><g fill="#ffffff" fill-opacity="1"><g transform="translate(21.68219, 21.155509)"><g><path d="M 8.1875 -6.234375 L 8.1875 -4.6875 C 8.1875 -4.394531 8.113281 -4.128906 7.96875 -3.890625 C 7.832031 -3.660156 7.644531 -3.472656 7.40625 -3.328125 C 7.175781 -3.191406 6.914062 -3.125 6.625 -3.125 L 5.0625 -3.125 L 6.625 -1.5625 L 8.1875 -1.5625 L 8.1875 0 L 6.3125 0 C 6.09375 0 5.90625 -0.078125 5.75 -0.234375 L 2.859375 -3.125 L 1.953125 -3.125 L 1.953125 0 L 0.390625 0 L 0.390625 -7.796875 L 6.625 -7.796875 C 6.914062 -7.796875 7.175781 -7.722656 7.40625 -7.578125 C 7.644531 -7.441406 7.832031 -7.253906 7.96875 -7.015625 C 8.113281 -6.785156 8.1875 -6.523438 8.1875 -6.234375 Z M 6.625 -6.234375 L 1.953125 -6.234375 L 1.953125 -4.6875 L 6.625 -4.6875 Z M 6.625 -6.234375 "/></g></g></g></svg>
